<svg width="20" height="20" viewBox="0 0 20 20" fill="none" xmlns="http://www.w3.org/2000/svg">
<path d="M2.9289 2.92887C4.88155 0.9764 7.44082 0 9.99992 0C12.559 0 15.1185 0.9764 17.0711 2.92887C19.0236 4.88151 19.9998 7.44076 19.9998 9.99984C19.9998 12.5592 19.0236 15.1183 17.0711 17.071C15.1185 19.0234 12.559 19.9998 9.99992 19.9998C7.44082 19.9998 4.88139 19.0234 2.9289 17.071C0.976245 15.1185 0 12.5592 0 9.99984C0 7.44076 0.976245 4.88151 2.9289 2.92887ZM9.38419 5.0752C9.38419 4.77572 9.62703 4.53288 9.92668 4.53288C10.2263 4.53288 10.4692 4.77572 10.4692 5.0752V9.53206H14.9261C15.2255 9.53206 15.4684 9.7749 15.4684 10.0744C15.4684 10.374 15.2255 10.6169 14.9261 10.6169H10.469V15.0737C10.469 15.3732 10.2262 15.616 9.92651 15.616C9.62687 15.616 9.38403 15.3732 9.38403 15.0737V10.6167H4.92729C4.6278 10.6167 4.3848 10.3739 4.3848 10.0742C4.3848 9.77474 4.62764 9.5319 4.92729 9.5319H9.38419V5.0752ZM9.99992 1.0848C7.71832 1.0848 5.43689 1.95524 3.69599 3.69613C1.95526 5.43685 1.08481 7.71842 1.08481 9.99984C1.08481 12.2814 1.95526 14.563 3.69599 16.3037C5.43689 18.0446 7.71832 18.915 9.99992 18.915C12.2815 18.915 14.5629 18.0446 16.3038 16.3037C18.0446 14.563 18.9152 12.2812 18.9152 9.99984C18.9152 7.71842 18.0446 5.43685 16.3038 3.69613C14.5631 1.95524 12.2815 1.0848 9.99992 1.0848Z" fill="#0F76BB"/>
</svg>
