<svg width="58" height="58" viewBox="0 0 58 58" fill="none" xmlns="http://www.w3.org/2000/svg">
<g filter="url(#filter0_d_1_683)">
<circle cx="29" cy="29" r="25" fill="white"/>
</g>
<g clip-path="url(#clip0_1_683)">
<path fill-rule="evenodd" clip-rule="evenodd" d="M35.5543 29.7507C35.5242 26.7123 38.0325 25.2542 38.1445 25.182C36.7347 23.1198 34.5383 22.8363 33.7556 22.8045C31.8865 22.6158 30.1091 23.9055 29.1594 23.9055C28.2125 23.9055 26.7491 22.8328 25.1993 22.8612C23.1623 22.8913 21.2843 24.0459 20.2342 25.8703C18.1179 29.5421 19.6929 34.9842 21.7556 37.9616C22.7632 39.4197 23.9649 41.0576 25.543 40.9991C27.0622 40.9393 27.6371 40.0149 29.4748 40.0149C31.312 40.0149 31.828 40.9991 33.4363 40.9677C35.0715 40.9375 36.1075 39.4812 37.1085 38.0183C38.2667 36.3263 38.7415 34.6902 38.7703 34.606C38.734 34.5896 35.5817 33.3822 35.5499 29.752L35.5543 29.7507H35.5543ZM32.5336 20.8317C33.3707 19.816 33.9363 18.4062 33.7818 16.9991C32.5757 17.0482 31.1132 17.803 30.2473 18.8173C29.4699 19.7177 28.7909 21.1528 28.9725 22.5311C30.3195 22.6361 31.6947 21.8468 32.5323 20.8334L32.5336 20.8317Z" fill="black"/>
</g>
<defs>
<filter id="filter0_d_1_683" x="0" y="0" width="58" height="58" filterUnits="userSpaceOnUse" color-interpolation-filters="sRGB">
<feFlood flood-opacity="0" result="BackgroundImageFix"/>
<feColorMatrix in="SourceAlpha" type="matrix" values="0 0 0 0 0 0 0 0 0 0 0 0 0 0 0 0 0 0 127 0" result="hardAlpha"/>
<feOffset/>
<feGaussianBlur stdDeviation="2"/>
<feComposite in2="hardAlpha" operator="out"/>
<feColorMatrix type="matrix" values="0 0 0 0 0 0 0 0 0 0 0 0 0 0 0 0 0 0 0.25 0"/>
<feBlend mode="normal" in2="BackgroundImageFix" result="effect1_dropShadow_1_683"/>
<feBlend mode="normal" in="SourceGraphic" in2="effect1_dropShadow_1_683" result="shape"/>
</filter>
<clipPath id="clip0_1_683">
<rect width="24" height="24" fill="white" transform="translate(17 17)"/>
</clipPath>
</defs>
</svg>
