<svg width="36" height="36" viewBox="0 0 36 36" fill="none" xmlns="http://www.w3.org/2000/svg">
<path fill-rule="evenodd" clip-rule="evenodd" d="M17.4375 1.125C27.0671 1.125 34.875 8.93054 34.875 18.5624C34.875 28.192 27.0672 35.9998 17.4375 35.9998C7.80554 35.9998 0 28.192 0 18.5624C0 8.93054 7.80554 1.125 17.4375 1.125Z" fill="#F1554D"/>
<path fill-rule="evenodd" clip-rule="evenodd" d="M14.5347 1.36576C22.574 2.91669 28.6481 9.99301 28.6481 18.486C28.6481 27.1272 22.3611 34.3008 14.1111 35.6827C15.1874 35.891 16.3009 35.9998 17.4374 35.9998C27.067 35.9998 34.8749 28.192 34.8749 18.5624C34.8749 8.93055 27.0671 1.125 17.4374 1.125C16.449 1.125 15.4791 1.20604 14.5347 1.36576Z" fill="#E34A42"/>
<path fill-rule="evenodd" clip-rule="evenodd" d="M12.5633 20.9696C13.9647 23.5504 15.952 25.749 17.8834 26.9639C19.1636 27.7691 21.0797 28.3945 22.8353 28.1947C23.7837 28.0874 24.8593 27.7097 25.6029 27.1524C27.5941 25.6596 26.1708 24.4476 24.8287 23.2055C23.2616 21.6674 22.508 21.3944 21.141 22.0174C20.5595 22.5148 18.8576 21.5737 17.6742 19.8953C17.428 19.547 17.1949 19.1721 16.9806 18.7859C16.7659 18.3975 16.5732 18.0017 16.4129 17.613C15.6328 15.7332 15.7872 13.8748 16.5491 13.7071C17.8688 12.9998 18.064 12.259 17.6246 10.1632C17.3228 8.4707 17.0162 6.62986 14.6396 7.30973C13.7322 7.56919 12.7893 8.18999 12.1549 8.86522C10.9798 10.1142 10.4292 11.9614 10.3979 13.4151C10.3495 15.6103 11.1236 18.4093 12.5633 20.9696Z" fill="white"/>
<path fill-rule="evenodd" clip-rule="evenodd" d="M16.2762 10.5828C16.5272 11.7815 15.702 11.8992 15.2234 12.4117C14.3466 13.3498 13.6987 15.1119 15.2949 18.9584C15.8374 20.2628 18.8855 24.5251 21.2651 23.6359C22.7116 22.9122 23.1644 23.8571 23.666 24.3404C24.9609 25.5409 25.4711 26.3069 24.5507 27.7409C24.9367 27.5789 25.2984 27.3819 25.603 27.1527C27.5941 25.6599 26.1709 24.4478 24.8287 23.2057C23.2616 21.6676 22.5081 21.3947 21.1411 22.0176C20.5595 22.5151 18.8576 21.5739 17.6742 19.8955C17.4281 19.5473 17.195 19.1724 16.9807 18.7862C16.7659 18.3978 16.5732 18.002 16.4129 17.6132C15.6328 15.7334 15.7872 13.875 16.5491 13.7073C17.8688 13.0001 18.064 12.2592 17.6247 10.1634C17.3228 8.47093 17.0162 6.63009 14.6397 7.30997C14.0129 7.48779 13.3728 7.83944 12.8263 8.26024C13.0121 8.17844 13.2008 8.11027 13.3881 8.05659C15.7645 7.37657 15.9743 8.89037 16.2762 10.5828Z" fill="#E2E2E2"/>
</svg>
