<svg width="16" height="20" viewBox="0 0 16 20" fill="none" xmlns="http://www.w3.org/2000/svg">
<g clip-path="url(#clip0_4_2453)">
<path fill-rule="evenodd" clip-rule="evenodd" d="M0.342991 1.56787H5.93972V0.611979C5.93972 0.275391 6.18655 0 6.4892 0H9.57919C9.8817 0 10.1287 0.275228 10.1287 0.611979V1.56803H15.6572C15.8461 1.56803 16.0001 1.74007 16.0001 1.95036V3.82438H0V1.9502C0 1.73991 0.154178 1.56787 0.342991 1.56787ZM1.26996 4.81852H14.8494C15.1325 4.81852 15.3896 5.07878 15.364 5.39209L14.2148 19.4268C14.1893 19.7402 13.9824 19.9998 13.6999 19.9998H2.40327C2.12064 19.9998 1.91341 19.7407 1.88828 19.4268L0.75496 5.39209C0.729823 5.07764 0.986592 4.81852 1.26996 4.81852ZM10.0949 6.99837H11.5367V17.6289H10.0949V6.99837ZM4.39472 6.99837H5.83669V17.6289H4.39472V6.99837ZM7.24446 6.99837H8.68671V17.6289H7.24446V6.99837Z" fill="#0F76BB"/>
</g>
<defs>
<clipPath id="clip0_4_2453">
<rect width="16" height="20" fill="white"/>
</clipPath>
</defs>
</svg>
