<svg width="20" height="20" viewBox="0 0 20 20" fill="none" xmlns="http://www.w3.org/2000/svg">
<g clip-path="url(#clip0_4_2845)">
<path d="M10.6543 3.57209C10.5436 3.70351 10.4329 3.83676 10.2962 3.99556L9.92025 4.43546L9.52962 4.01017C9.41406 3.88422 9.29687 3.75462 9.18294 3.62867C7.97526 2.29619 7.06543 1.29227 5.19206 1.26489C5.11881 1.26306 5.04069 1.26489 4.95931 1.26854C3.91113 1.31052 2.94434 1.74312 2.23796 2.48238C1.54134 3.2125 1.09701 4.24746 1.08236 5.50693C1.08073 5.58541 1.08236 5.66755 1.08561 5.75699C1.19792 9.27438 4.19922 12.3427 6.68783 14.8854C7.16797 15.3764 7.62858 15.8473 8.06966 16.3238L9.90234 18.3042L12.2054 15.7415C12.5765 15.329 12.9964 14.8781 13.4456 14.3962C14.209 13.5748 15.0586 12.664 15.8496 11.7459C16.4176 11.0869 16.9564 10.4243 17.4137 9.78729C17.863 9.16304 18.2308 8.56981 18.4668 8.04047C18.8542 7.17161 18.9762 6.30276 18.8932 5.4905C18.8118 4.68918 18.5303 3.9408 18.1087 3.30194C17.6807 2.65396 17.111 2.11731 16.4583 1.75042C15.7064 1.3306 14.8454 1.13164 13.9648 1.24481C12.4463 1.44194 11.6374 2.40389 10.6543 3.57209ZM9.89095 2.71054C11.014 1.37623 11.9466 0.282868 13.8411 0.0401011C14.9349 -0.100448 16.0059 0.144144 16.9385 0.669836C17.7441 1.12251 18.4473 1.78328 18.9746 2.58094C19.5068 3.38773 19.8633 4.33507 19.9674 5.3536C20.0732 6.38673 19.9202 7.48739 19.4303 8.58259C19.1536 9.20137 18.7435 9.86578 18.2536 10.5466C17.7734 11.2147 17.2135 11.9047 16.626 12.5855C15.8203 13.5219 14.9642 14.4419 14.1927 15.2705C13.7419 15.7543 13.3203 16.2069 12.9655 16.6012L10.2865 19.5819L9.91048 19.9999L9.52962 19.5892L7.31608 17.1981C6.91081 16.7618 6.44206 16.2818 5.9554 15.7835C3.31706 13.0838 0.131836 9.82928 0.00325521 5.79898C0 5.70041 0 5.59819 0 5.49232C0.0195312 3.87509 0.595703 2.53896 1.49902 1.59345C2.39421 0.657058 3.61003 0.109463 4.91862 0.056529C5.00814 0.0528783 5.10254 0.051053 5.20182 0.0528783C7.48698 0.0875593 8.5319 1.21013 9.89095 2.71054Z" fill="#0F76BB"/>
</g>
<defs>
<clipPath id="clip0_4_2845">
<rect width="20" height="20" fill="white"/>
</clipPath>
</defs>
</svg>
