<svg width="58" height="58" viewBox="0 0 58 58" fill="none" xmlns="http://www.w3.org/2000/svg">
<g filter="url(#filter0_d_1_687)">
<circle cx="29" cy="29" r="25" fill="white"/>
</g>
<g clip-path="url(#clip0_1_687)">
<path fill-rule="evenodd" clip-rule="evenodd" d="M22.0233 29.2616C22.0233 28.4653 22.1556 27.7016 22.3917 26.9855L18.259 23.8298C17.4536 25.465 17 27.3075 17 29.2616C17 31.2157 17.4533 33.0554 18.2575 34.6897L22.3876 31.528C22.1538 30.8151 22.023 30.0545 22.023 29.2619" fill="#FBBC05"/>
<path fill-rule="evenodd" clip-rule="evenodd" d="M29.2792 22.0161C31.0094 22.0161 32.5723 22.6294 33.8 23.6326L37.3721 20.0655C35.1954 18.1703 32.4045 17 29.2792 17C24.4267 17 20.2561 19.7752 18.259 23.8298L22.3914 26.9856C23.3435 24.095 26.0579 22.0161 29.2788 22.0161" fill="#EB4335"/>
<path fill-rule="evenodd" clip-rule="evenodd" d="M29.2791 36.5071C26.0581 36.5071 23.3438 34.4283 22.3916 31.5377L18.2593 34.6929C20.2563 38.7481 24.4266 41.5233 29.2791 41.5233C32.274 41.5233 35.1335 40.4599 37.2795 38.4672L33.3569 35.4346C32.2502 36.1319 30.8564 36.5068 29.2791 36.5068" fill="#34A853"/>
<path fill-rule="evenodd" clip-rule="evenodd" d="M41.0001 29.2616C41.0001 28.5371 40.8885 27.7568 40.7211 27.0323H29.2793V31.7697H35.8655C35.5363 33.3849 34.6397 34.6267 33.3571 35.4349L37.2797 38.4675C39.5342 36.3751 41.0001 33.2586 41.0001 29.2616Z" fill="#4285F4"/>
</g>
<defs>
<filter id="filter0_d_1_687" x="0" y="0" width="58" height="58" filterUnits="userSpaceOnUse" color-interpolation-filters="sRGB">
<feFlood flood-opacity="0" result="BackgroundImageFix"/>
<feColorMatrix in="SourceAlpha" type="matrix" values="0 0 0 0 0 0 0 0 0 0 0 0 0 0 0 0 0 0 127 0" result="hardAlpha"/>
<feOffset/>
<feGaussianBlur stdDeviation="2"/>
<feComposite in2="hardAlpha" operator="out"/>
<feColorMatrix type="matrix" values="0 0 0 0 0 0 0 0 0 0 0 0 0 0 0 0 0 0 0.25 0"/>
<feBlend mode="normal" in2="BackgroundImageFix" result="effect1_dropShadow_1_687"/>
<feBlend mode="normal" in="SourceGraphic" in2="effect1_dropShadow_1_687" result="shape"/>
</filter>
<clipPath id="clip0_1_687">
<rect width="24" height="24.5232" fill="white" transform="translate(17 17)"/>
</clipPath>
</defs>
</svg>
