<svg width="30" height="24" viewBox="0 0 30 24" fill="none" xmlns="http://www.w3.org/2000/svg">
<g clip-path="url(#clip0_4_2430)">
<path fill-rule="evenodd" clip-rule="evenodd" d="M16.3763 1.03366L27.3172 0.00863C28.7817 -0.12859 30.1378 1.41515 29.9887 3.11341L29.1067 13.1503C28.9575 14.8484 27.9039 16.2548 26.4353 16.2548H23.5393L19.388 20.1828L19.688 16.2548H17.1038V16.4989C17.1038 18.4651 15.719 20.0737 14.0277 20.0737H11.039L11.2985 23.4697C11.3091 23.5628 11.2954 23.6574 11.2593 23.7413C11.2231 23.8253 11.166 23.8947 11.0955 23.9405C11.025 23.9863 10.9443 24.0065 10.8638 23.9984C10.7833 23.9902 10.7068 23.9542 10.6442 23.895L6.60547 20.0737H3.96863C3.14041 20.0737 2.42638 19.6888 1.89166 19.0674C1.33906 18.4252 0.98199 17.5279 0.89574 16.5466L0.0137864 6.50972C-0.00242065 6.32821 -0.00434268 6.14535 0.00804424 5.96343C0.11738 4.38686 1.27379 3.06581 2.61705 2.89781L2.63035 2.8959C2.79246 2.87628 2.95577 2.87388 3.11826 2.88875L13.7142 3.88143C13.8284 2.30541 14.9862 1.16393 16.3763 1.03366ZM16.2945 16.2532C14.863 16.2026 13.7048 14.8261 13.7048 13.1503V4.82338L3.05504 3.82566C2.94102 3.81472 2.82639 3.81588 2.71256 3.82913L2.70342 3.83009C1.74523 3.94824 0.892283 4.91034 0.814119 6.03691C0.805148 6.1625 0.806011 6.28877 0.816697 6.41418L1.69865 16.451C1.76586 17.2155 2.04019 17.91 2.46388 18.4024C2.85213 18.8537 3.36957 19.1331 3.96863 19.1331H6.74732C6.85566 19.1331 6.95404 19.1826 7.0267 19.2632L10.4128 22.467L10.1971 19.6438C10.1923 19.5791 10.1991 19.514 10.2171 19.4526C10.235 19.3911 10.2638 19.3347 10.3016 19.2869C10.3393 19.239 10.3852 19.2008 10.4363 19.1747C10.4874 19.1486 10.5427 19.1351 10.5985 19.135V19.1331H14.0277C15.2741 19.1331 16.2945 17.9477 16.2945 16.4989V16.2532ZM5.36357 7.854H7.82838V7.04682H8.92947V7.854H11.4033V9.17921H10.8954C10.8038 10.0164 10.6025 10.7061 10.2603 11.4496C9.9708 12.0776 9.59709 12.6826 9.16308 13.2624C9.85572 14.2252 10.7157 15.0628 11.7395 15.8264L11.1731 16.8524C10.0983 16.0508 9.18541 15.1683 8.43523 14.1517C7.76416 14.9062 7.00179 15.6089 6.20328 16.2508L5.60797 15.2495C6.39822 14.6141 7.14886 13.92 7.7948 13.18C7.19949 12.1677 6.74363 11.0316 6.4281 9.72509L7.43832 9.3959C7.69695 10.4676 8.05965 11.4109 8.52588 12.2552C8.84386 11.8077 9.11884 11.3485 9.33611 10.877C9.6026 10.2977 9.74574 9.81866 9.83597 9.17921H5.36357V7.854ZM23.4719 10.6548H20.1682L19.736 12.3688H18.1083C18.813 10.2012 19.6267 7.59842 20.3317 5.42974C20.5855 4.64639 20.8745 3.34835 21.7979 3.34835C22.7551 3.34835 23.0729 4.53764 23.3393 5.35925L25.5965 12.4043H23.9175L23.4719 10.6548ZM23.1192 8.98799L21.8238 5.05846L20.5248 8.98799H23.1192Z" fill="#0F76BB"/>
</g>
<defs>
<clipPath id="clip0_4_2430">
<rect width="30" height="24" fill="white"/>
</clipPath>
</defs>
</svg>
