<svg width="18" height="20" viewBox="0 0 18 20" fill="none" xmlns="http://www.w3.org/2000/svg">
<g clip-path="url(#clip0_4_2460)">
<path d="M8.45652 0.399902C8.45652 0.179036 8.69996 0 8.99992 0C9.29988 0 9.54332 0.179036 9.54332 0.399902V7.62272C9.54332 7.84359 9.30004 8.02262 8.99992 8.02262C8.6998 8.02262 8.45652 7.84359 8.45652 7.62272V0.399902ZM11.7206 3.20003C11.4391 3.09456 11.2947 2.77604 11.398 2.48828C11.501 2.20068 11.8126 2.05306 12.0941 2.15853C13.8394 2.81201 15.3324 4.00407 16.3808 5.53841C17.4012 7.03158 18 8.8457 18 10.7996C18 13.3397 16.9923 15.6398 15.3636 17.305C13.7348 18.9699 11.4848 20.0002 8.99992 20.0002C6.51506 20.0002 4.26504 18.9701 2.63627 17.305C1.00767 15.6398 0 13.3397 0 10.7996C0 8.8457 0.598647 7.03158 1.61905 5.53841C2.66748 4.00407 4.16043 2.81201 5.90574 2.15853C6.18708 2.05322 6.49882 2.20085 6.60183 2.48828C6.705 2.77588 6.56059 3.09456 6.27926 3.20003C4.74141 3.77588 3.42725 4.82406 2.5062 6.17188C1.61157 7.48112 1.08664 9.0765 1.08664 10.7996C1.08664 13.0332 1.97251 15.0555 3.40464 16.5195C4.83678 17.9836 6.81502 18.8893 8.99992 18.8893C11.1848 18.8893 13.1631 17.9837 14.5952 16.5195C16.0273 15.0557 16.9132 13.0332 16.9132 10.7996C16.9132 9.0765 16.3883 7.48112 15.4936 6.17188C14.5724 4.82389 13.2584 3.77572 11.7206 3.20003Z" fill="#0F76BB"/>
</g>
<defs>
<clipPath id="clip0_4_2460">
<rect width="18" height="20" fill="white"/>
</clipPath>
</defs>
</svg>
