<svg width="20" height="20" viewBox="0 0 20 20" fill="none" xmlns="http://www.w3.org/2000/svg">
<g clip-path="url(#clip0_4_2690)">
<path d="M12.9728 19.7571C12.7775 19.9583 12.4777 19.9394 12.3031 19.7141C12.1284 19.4888 12.145 19.143 12.3403 18.9415L18.7584 12.3325L18.7603 12.3306C18.8529 12.2362 18.9223 12.1343 18.9688 12.0246C19.0145 11.9169 19.0409 11.7939 19.0481 11.6561C19.0552 11.5187 19.0414 11.3925 19.0066 11.2776C18.9719 11.164 18.9135 11.0538 18.8313 10.947L18.8235 10.9367L11.5391 1.79643C11.3613 1.57359 11.3739 1.22665 11.5671 1.02183C11.7603 0.817012 12.0609 0.83128 12.2386 1.05412L19.5235 10.1955C19.5297 10.2028 19.5357 10.2102 19.5417 10.2179C19.7051 10.4294 19.8256 10.6628 19.9031 10.9175C19.9802 11.1714 20.0113 11.4389 19.9966 11.7205C19.982 12.0015 19.9237 12.263 19.8207 12.5056C19.7183 12.7465 19.5746 12.9612 19.3889 13.1505L19.3887 13.1503L12.9728 19.7571ZM8.85153 0.587788H8.97165V0.588914C9.09991 0.588914 9.22784 0.648426 9.32143 0.765761L16.6063 9.90734C16.6125 9.91466 16.6185 9.92198 16.6244 9.92968C16.788 10.1414 16.9084 10.3746 16.9859 10.6294C17.063 10.8832 17.0941 11.1507 17.0795 11.4325C17.0647 11.7134 17.0064 11.9751 16.9034 12.2174C16.8011 12.4583 16.6574 12.6731 16.4715 12.8623L10.0765 19.4473C10.0722 19.4526 10.0675 19.4576 10.063 19.4627C9.88182 19.6564 9.68113 19.7982 9.46108 19.8881C9.24298 19.9771 9.00958 20.0131 8.76088 19.996C8.51185 19.979 8.28301 19.9114 8.07418 19.794C7.86471 19.6761 7.67786 19.5104 7.51314 19.2971L0.663642 10.436L0.663804 10.4358C0.58161 10.3294 0.535223 10.1861 0.544663 10.0327L0.55866 9.81103L0.0010385 0.584596C-0.000263592 0.561317 -0.000426353 0.537662 0.0010385 0.51382C0.0174774 0.211754 0.243065 -0.018034 0.505112 0.00111501L8.69984 0.604496C8.71009 0.602619 8.72051 0.600741 8.73109 0.59924C8.77845 0.591542 8.81882 0.587788 8.85153 0.587788ZM8.7765 1.70237C8.74476 1.70594 8.71319 1.70575 8.68226 1.702L0.987375 1.13522L1.50951 9.77611C1.51098 9.80146 1.51098 9.82662 1.50935 9.85121H1.50951L1.50772 9.87899L8.22344 18.5674C8.30449 18.6723 8.39352 18.7521 8.49069 18.8067C8.58835 18.8616 8.69691 18.8935 8.81638 18.9016C8.9365 18.9098 9.04587 18.8937 9.14451 18.8535C9.24119 18.8141 9.33152 18.7495 9.41518 18.6599C9.42478 18.6496 9.43471 18.64 9.4448 18.6308L15.8407 12.0447L15.8426 12.0426L15.8425 12.0425C15.9351 11.9482 16.0046 11.8463 16.051 11.7368C16.0969 11.6289 16.1231 11.5061 16.1304 11.3681C16.1376 11.2307 16.1236 11.1045 16.0887 10.9896C16.0541 10.8761 15.9958 10.7659 15.9134 10.659L15.9056 10.6487L8.7765 1.70237ZM3.94996 2.29674C4.18987 2.30425 4.41107 2.35963 4.61371 2.46289C4.81814 2.56708 5.00303 2.71821 5.16807 2.91589L5.17019 2.91871C5.33393 3.11433 5.45763 3.33248 5.54096 3.57297C5.62543 3.81665 5.66775 4.0761 5.66775 4.35113C5.66775 4.37497 5.66645 4.39844 5.66385 4.42153C5.65229 4.67441 5.60362 4.91058 5.51817 5.12967L5.51736 5.13154L5.51817 5.13192C5.42654 5.36678 5.29356 5.57986 5.12006 5.77097C5.1098 5.78223 5.09922 5.79294 5.08832 5.80289C4.92181 5.97616 4.7392 6.1072 4.54095 6.19525C4.33408 6.28705 4.11549 6.33042 3.88486 6.32479V6.32667C3.64674 6.32667 3.42294 6.27448 3.21379 6.17047C3.0079 6.06834 2.82007 5.91628 2.6508 5.7154L2.64885 5.71315C2.48153 5.51283 2.35653 5.29149 2.27384 5.04913C2.19181 4.80789 2.15373 4.54919 2.16024 4.27322C2.16658 3.99255 2.2146 3.73386 2.30542 3.49693C2.39722 3.25701 2.53117 3.04074 2.70793 2.84793C2.88013 2.6602 3.07121 2.5194 3.28101 2.42609C3.49081 2.33279 3.71396 2.28942 3.94996 2.29674ZM4.2304 3.46708C4.13763 3.41996 4.03672 3.39443 3.92767 3.39105C3.81682 3.38748 3.71526 3.40645 3.6233 3.44737C3.53085 3.48867 3.44264 3.55494 3.35881 3.64618C3.27743 3.73479 3.21656 3.83242 3.17587 3.93905C3.13404 4.04831 3.11174 4.16846 3.10881 4.29913C3.10572 4.42566 3.12265 4.54262 3.15927 4.65C3.19573 4.7572 3.25399 4.85839 3.33326 4.95357C3.4122 5.04688 3.49765 5.11634 3.58945 5.16177C3.67783 5.2057 3.7763 5.22766 3.8847 5.22766V5.22973L3.89593 5.22992C4.00791 5.23348 4.10996 5.21452 4.20224 5.1736C4.28818 5.13549 4.37021 5.07635 4.44834 4.99656C4.45371 4.9898 4.45941 4.98342 4.46527 4.97704C4.54763 4.88636 4.6098 4.78761 4.6513 4.68117L4.65196 4.68154C4.68841 4.5873 4.70974 4.48498 4.71576 4.37441C4.71543 4.36671 4.71527 4.35883 4.71527 4.35094C4.71527 4.21202 4.69655 4.08849 4.65912 3.98054C4.62152 3.87184 4.56374 3.77121 4.4861 3.67885L4.48317 3.67547C4.40635 3.58329 4.32204 3.51383 4.2304 3.46708ZM8.53236 5.88737C8.35462 5.66452 8.36716 5.31759 8.56019 5.11277C8.75339 4.90776 9.05401 4.92222 9.23175 5.14506L13.2896 10.2214C13.4673 10.4443 13.4548 10.791 13.2616 10.996C13.0684 11.201 12.7677 11.1868 12.59 10.9637L8.53236 5.88737ZM6.59029 8.00896C6.41255 7.78612 6.42508 7.43937 6.61812 7.23437C6.81132 7.02936 7.11194 7.04363 7.28967 7.26647L11.3475 12.3428C11.5252 12.5657 11.5127 12.9124 11.3195 13.1174C11.1261 13.3224 10.8255 13.3082 10.6478 13.0853L6.59029 8.00896ZM4.56944 10.1306C4.3917 9.90772 4.40423 9.56078 4.59727 9.35596C4.79047 9.15096 5.09125 9.16541 5.26882 9.38807L9.32664 14.4644C9.50437 14.6875 9.492 15.034 9.2988 15.239C9.10561 15.444 8.80498 15.4298 8.62725 15.2069L4.56944 10.1306Z" fill="#0F76BB"/>
</g>
<defs>
<clipPath id="clip0_4_2690">
<rect width="20" height="20" fill="white"/>
</clipPath>
</defs>
</svg>
