<svg width="17" height="20" viewBox="0 0 17 20" fill="none" xmlns="http://www.w3.org/2000/svg">
<g clip-path="url(#clip0_4_2682)">
<path fill-rule="evenodd" clip-rule="evenodd" d="M8.47087 0C11.6406 2.15088 14.5042 3.16846 16.9618 2.9279C17.391 12.2212 14.1851 17.7095 8.50371 20C3.01727 17.8561 -0.227924 12.604 0.0127593 2.78695C2.89776 2.94857 5.72818 2.28092 8.47087 0ZM6.30351 9.03369H6.52214V8.49154C6.52214 7.89111 6.74321 7.34391 7.09945 6.94629C7.45842 6.54557 7.95423 6.29671 8.50037 6.29671C9.0465 6.29671 9.54247 6.54557 9.90129 6.94629C10.2575 7.34391 10.4786 7.89111 10.4786 8.49154V9.03369H10.6972C10.8747 9.03369 11.02 9.18913 11.02 9.37923V13.0306C11.02 13.2207 10.8747 13.3761 10.6972 13.3761H6.30351C6.12592 13.3761 5.98072 13.2207 5.98072 13.0306V9.37923C5.98057 9.18913 6.12592 9.03369 6.30351 9.03369ZM7.13336 9.03369H9.86723V8.49154C9.86723 8.06462 9.71199 7.6779 9.46188 7.3986C9.21451 7.1224 8.87409 6.95101 8.50021 6.95101C8.12649 6.95101 7.78592 7.12256 7.5387 7.3986C7.28844 7.6779 7.13336 8.06478 7.13336 8.49154V9.03369ZM8.23536 11.439L7.88703 12.4155H9.1134L8.79077 11.4256C8.99557 11.3128 9.1356 11.0843 9.1356 10.8208C9.1356 10.4452 8.85113 10.1406 8.50021 10.1406C8.1493 10.1406 7.86498 10.4452 7.86498 10.8208C7.86498 11.0951 8.01672 11.3314 8.23536 11.439ZM8.47422 1.14827C11.28 3.05208 13.8149 3.95296 15.9903 3.73991C16.3701 11.966 13.5324 16.8242 8.50356 18.8516C3.64703 16.9539 0.774187 12.3052 0.98735 3.61507C3.5412 3.7583 6.04656 3.16732 8.47422 1.14827Z" fill="#0F76BB"/>
</g>
<defs>
<clipPath id="clip0_4_2682">
<rect width="17" height="20" fill="white"/>
</clipPath>
</defs>
</svg>
