<svg width="20" height="20" viewBox="0 0 20 20" fill="none" xmlns="http://www.w3.org/2000/svg">
<g clip-path="url(#clip0_4_2677)">
<path d="M12.91 7.86926L12.91 7.86928C12.0673 8.7121 11.0484 9.13409 9.85748 9.13409C8.66698 9.13409 7.64816 8.71201 6.80525 7.86938C5.96239 7.02666 5.54028 6.00789 5.54028 4.81689C5.54028 3.62621 5.96239 2.60742 6.80512 1.76469C7.64783 0.921979 8.66645 0.5 9.85748 0.5C11.0482 0.5 12.0669 0.921951 12.9098 1.7645C13.7527 2.60755 14.1747 3.62635 14.1747 4.81689C14.1747 6.00792 13.7527 7.02655 12.91 7.86926Z" stroke="#0F76BB"/>
<path d="M17.7874 15.4139L17.7874 15.4135C17.7619 15.0447 17.7098 14.6377 17.632 14.2036L17.7874 15.4139ZM17.7874 15.4139C17.8133 15.7825 17.8265 16.1683 17.8267 16.5603L17.7874 15.4139ZM17.3372 12.9971L17.3371 12.997C17.2188 12.6272 17.0572 12.26 16.8564 11.9068L17.291 11.6597L16.8564 11.9068C16.6521 11.5475 16.4162 11.2417 16.1578 10.9946L16.1577 10.9945C15.8981 10.746 15.574 10.5403 15.188 10.3872L17.3372 12.9971ZM17.3372 12.9971C17.4548 13.3645 17.5543 13.7703 17.632 14.2034L17.3372 12.9971ZM7.36887 10.9405L7.36853 10.9402C7.06412 10.7457 6.78819 10.5679 6.54848 10.4117L6.54839 10.4117C6.17107 10.1657 6.08279 10.1608 6.0388 10.1608C5.57535 10.1608 5.15273 10.2392 4.77869 10.3873L4.77862 10.3873C4.39293 10.54 4.06866 10.7458 3.80865 10.9946C3.55015 11.2421 3.31414 11.5478 3.1104 11.9066L3.11037 11.9066C2.90966 12.26 2.74804 12.627 2.62956 12.9971L7.36887 10.9405ZM7.36887 10.9405C7.67925 11.1385 8.07762 11.3106 8.53851 11.4595L7.36887 10.9405ZM2.17941 15.4139L2.1794 15.414C2.15369 15.7847 2.14062 16.1703 2.14062 16.5605C2.14062 17.4907 2.43195 18.1967 2.97163 18.7108C3.50977 19.2228 4.23414 19.5001 5.1686 19.5001H14.7987C15.7331 19.5001 16.4572 19.223 16.9955 18.7108L16.9955 18.7107C17.5352 18.1972 17.8266 17.4912 17.8267 16.5605L2.17941 15.4139ZM2.17941 15.4139C2.20498 15.0441 2.25704 14.637 2.33479 14.2036L2.17941 15.4139ZM12.5977 10.9404L12.5983 10.9401L11.4277 11.4594C11.889 11.3104 12.2872 11.1383 12.5977 10.9404ZM13.9276 10.1609C14.3909 10.1609 14.8136 10.2392 15.1877 10.3871L13.4174 10.412C13.4176 10.4119 13.4177 10.4118 13.4178 10.4118C13.7955 10.1658 13.8836 10.1609 13.9276 10.1609ZM9.98318 11.6923C10.4665 11.6923 10.9525 11.6131 11.4275 11.4595L8.53861 11.4595C9.01388 11.6131 9.49978 11.6923 9.98318 11.6923ZM2.3348 14.2035C2.41253 13.7705 2.51201 13.3647 2.62951 12.9972L2.3348 14.2035Z" stroke="#0F76BB"/>
</g>
<defs>
<clipPath id="clip0_4_2677">
<rect width="20" height="20" fill="white"/>
</clipPath>
</defs>
</svg>
