<svg width="22" height="20" viewBox="0 0 22 20" fill="none" xmlns="http://www.w3.org/2000/svg">
<path d="M5.19151 1.1709L4.11512 3.29691C4.08459 3.35758 4.03406 3.4096 3.96954 3.44678C3.90501 3.48397 3.82919 3.50476 3.75108 3.50669L1.0453 3.71179L3.11007 5.23266C3.16562 5.27364 3.20698 5.32656 3.22973 5.38579C3.25248 5.44502 3.25579 5.50834 3.23929 5.56902L2.62884 7.82277L4.9817 6.63632C5.04644 6.60382 5.12054 6.587 5.19586 6.58769C5.27119 6.58838 5.34484 6.60655 5.40873 6.64022L6.53328 7.20747L6.342 7.91379L5.19151 7.33365L2.73583 8.57167C2.6659 8.6084 2.58762 8.63379 2.50611 8.64629C2.42042 8.65879 2.33196 8.65762 2.24488 8.64121C2.06703 8.60722 1.92253 8.51542 1.83314 8.39587C1.74328 8.27516 1.70762 8.12514 1.74838 7.9763L2.388 5.61551L0.249591 4.04073C0.227359 4.02667 0.20698 4.01065 0.188454 3.99307C0.151401 3.96143 0.118516 3.92549 0.0916531 3.88681L0.0712741 3.85712C0.0374634 3.80087 0.0143054 3.73875 0.00504221 3.67273L0.00133693 3.6403C-0.00977892 3.4938 0.0490424 3.35551 0.154643 3.24925C0.259317 3.14338 0.411234 3.07071 0.583992 3.05391L3.45836 2.83748L4.58523 0.611862C4.61904 0.545449 4.66582 0.484896 4.72511 0.435282C4.77466 0.394262 4.83349 0.35832 4.90018 0.330583L4.93353 0.3173C5.10073 0.257138 5.28136 0.259482 5.43837 0.313003C5.59353 0.366134 5.726 0.46966 5.79686 0.6103L6.72596 2.44565L5.87004 2.51011L5.19151 1.1709ZM10 14.468C10 14.6496 9.82496 14.7973 9.60959 14.7973C9.39422 14.7973 9.21915 14.6496 9.21915 14.468V13.8593C9.19831 13.85 9.17839 13.839 9.1594 13.8261L8.40769 13.312L7.3943 12.6108C7.20579 12.4795 6.99228 12.3889 6.79219 12.3553C6.6639 12.3338 6.54533 12.3361 6.45269 12.3682C6.37766 12.3939 6.31282 12.4451 6.26928 12.5268C6.21231 12.6326 6.18591 12.7846 6.20166 12.9885C6.21556 13.1698 6.29059 13.369 6.3897 13.5589C6.53653 13.8402 6.73661 14.098 6.8839 14.2641L9.87267 18.0781C9.90636 18.121 9.92747 18.17 9.93427 18.2211C9.99355 18.6329 10.0973 18.9415 10.2501 19.1349C10.3613 19.2751 10.5053 19.3462 10.6846 19.3423C12.1996 19.3423 13.8433 19.2896 15.3421 19.3423C15.6297 19.3384 15.8933 19.2669 16.1314 19.1286C16.3972 18.9739 16.6404 18.7337 16.8599 18.4098L16.9159 18.3289C17.4921 17.4914 18.0511 16.6784 18.11 15.713L18.0803 14.5938L18.0762 14.5446L18.0803 14.2809C18.091 13.4616 18.1077 12.2076 17.2999 12.0849H16.7765C16.7923 12.435 16.7682 12.7967 16.7464 13.1253C16.7335 13.319 16.7214 13.4991 16.7214 13.6663C16.7214 13.848 16.5463 13.9957 16.3305 13.9957C16.1151 13.9957 15.9401 13.848 15.9401 13.6663C15.9401 13.5112 15.954 13.3077 15.9688 13.0889C16.0234 12.2728 16.0962 11.1813 15.4204 11.0731H14.9081C14.8743 11.0731 14.841 11.0696 14.8095 11.0626C14.8414 11.4556 14.8137 11.872 14.7886 12.2447C14.7757 12.4389 14.7636 12.619 14.7636 12.7862C14.7636 12.9678 14.5886 13.1155 14.3732 13.1155C14.1574 13.1155 13.9823 12.9678 13.9823 12.7862C13.9823 12.6311 13.9962 12.4275 14.011 12.2088C14.0657 11.3927 14.1384 10.3012 13.4626 10.1933H12.9504C12.9152 10.1933 12.8809 10.1894 12.8485 10.182V11.8814C12.8485 12.0634 12.6734 12.2107 12.458 12.2107C12.2422 12.2107 12.0676 12.0634 12.0676 11.8814V8.4619C12.0676 7.88918 11.7902 7.52743 11.4363 7.37663C11.3066 7.32154 11.1667 7.29342 11.0287 7.29342C10.8916 7.29342 10.7527 7.32076 10.6235 7.37585C10.2738 7.52586 10 7.88918 10 8.47557V14.468ZM9.21915 13.021V8.96507L7.58419 9.78938C7.51182 9.82576 7.42529 9.83645 7.34358 9.81909C7.26188 9.80173 7.19167 9.75775 7.14836 9.69679C7.1061 9.63744 7.09281 9.56657 7.11131 9.49911L7.9978 6.2269L4.99976 4.01886C4.86776 3.92158 4.85433 3.75242 4.97012 3.64069C4.99802 3.61367 5.03208 3.59165 5.07027 3.57594C5.10846 3.56024 5.15001 3.55117 5.19244 3.54928L9.14412 3.25042L10.7073 0.163769C10.7763 0.027036 10.9629 -0.0366425 11.1246 0.0215666C11.2043 0.0500852 11.2631 0.102825 11.2936 0.165332L12.8559 3.25042L16.8182 3.55045C16.9928 3.56295 17.1225 3.69304 17.1072 3.84032C17.1003 3.90936 17.0618 3.97341 16.9998 4.01886L14.0027 6.2269L14.8892 9.49911C14.9033 9.5513 14.8987 9.60587 14.8758 9.65581C14.853 9.70575 14.8129 9.7488 14.7609 9.77941C14.7088 9.81002 14.6471 9.8268 14.5836 9.82761C14.5201 9.82841 14.4578 9.81319 14.4047 9.78391L12.8485 8.99906V9.5456C12.8809 9.53818 12.9152 9.53466 12.9504 9.53466H13.4886C13.5196 9.53466 13.5492 9.5374 13.5779 9.54326C14.2245 9.63038 14.5469 9.9937 14.6993 10.4656C14.7595 10.4332 14.8317 10.4144 14.9081 10.4144H15.4463C15.4774 10.4144 15.507 10.4176 15.5357 10.423C16.224 10.516 16.5445 10.9215 16.6844 11.438C16.7172 11.4306 16.752 11.4263 16.7876 11.4263H17.3263C17.3569 11.4263 17.387 11.4294 17.4157 11.4353C18.8932 11.6345 18.8719 13.2401 18.858 14.2871C18.8561 14.7715 18.8821 15.2536 18.8881 15.7377C18.8223 16.8671 18.2151 17.7496 17.5898 18.6587L17.537 18.7368C17.2601 19.1446 16.9391 19.4564 16.5732 19.6689C16.2031 19.8834 15.7937 19.994 15.3458 19.9983L10.6939 19.9998C10.2293 20.0065 9.86896 19.835 9.60404 19.5002C9.39052 19.2302 9.24879 18.8524 9.17237 18.3766L6.25724 14.6555C6.08541 14.4613 5.85105 14.159 5.67597 13.8238C5.54444 13.5718 5.44439 13.2983 5.42355 13.03C5.399 12.7123 5.4518 12.4561 5.55879 12.2564C5.69172 12.0084 5.90385 11.8462 6.15998 11.7583C6.39897 11.6763 6.66945 11.6642 6.94179 11.7099C7.26786 11.7646 7.60457 11.9044 7.89127 12.1041L9.21915 13.021ZM15.84 15.4927C15.84 15.3443 15.9831 15.2235 16.1591 15.2235C16.3347 15.2235 16.4778 15.3443 16.4778 15.4927V16.7225C16.4764 16.7931 16.4421 16.8603 16.3825 16.9098C16.3228 16.9592 16.2426 16.9869 16.1589 16.9869C16.0753 16.9869 15.995 16.9592 15.9353 16.9098C15.8757 16.8603 15.8414 16.7931 15.84 16.7225V15.4927ZM13.9559 14.9489C13.9559 14.8008 14.0985 14.6801 14.2745 14.6801C14.4505 14.6801 14.5932 14.8008 14.5932 14.9489V16.7221C14.5932 16.8706 14.4505 16.9913 14.2745 16.9913C14.0985 16.9913 13.9559 16.8706 13.9559 16.7221V14.9489ZM17.4143 0.611862L18.5416 2.83748L21.416 3.05391C21.5888 3.07071 21.7402 3.14338 21.8454 3.24925C21.951 3.35512 22.0098 3.4938 21.9987 3.6403L21.995 3.67273C21.9857 3.73875 21.9625 3.80087 21.9287 3.85712L21.9079 3.8872C21.8815 3.92549 21.8491 3.96104 21.8125 3.99229C21.7939 4.00987 21.7731 4.02628 21.7504 4.04073L19.612 5.61551L20.2516 7.9763C20.2924 8.12514 20.2563 8.27555 20.1669 8.39587C20.1207 8.4576 20.0606 8.51105 19.99 8.55315C19.9193 8.59525 19.8395 8.62517 19.7551 8.64121C19.668 8.65762 19.5791 8.65879 19.4939 8.64629C19.4125 8.63365 19.3346 8.60835 19.2642 8.57167L16.8085 7.33365L15.6622 7.91184L15.4681 7.20669L16.5913 6.64022C16.6552 6.60655 16.7288 6.58838 16.8041 6.58769C16.8795 6.587 16.9536 6.60382 17.0183 6.63632L19.3712 7.82277L18.7602 5.56902C18.7283 5.44908 18.7732 5.3186 18.8899 5.23266L20.9547 3.71179L18.2489 3.50669C18.1708 3.50476 18.095 3.48397 18.0305 3.44678C17.9659 3.4096 17.9154 3.35758 17.8849 3.29691L16.8085 1.1709L16.13 2.51089L15.2736 2.44604L16.2031 0.6103C16.274 0.46966 16.406 0.366524 16.5621 0.313394C16.7186 0.259482 16.8993 0.257138 17.0665 0.3173L17.0989 0.330192C17.1656 0.35793 17.2253 0.394262 17.2744 0.435672C17.3342 0.484896 17.3805 0.545449 17.4143 0.611862Z" fill="#0F76BB"/>
</svg>
