<svg width="20" height="20" viewBox="0 0 20 20" fill="none" xmlns="http://www.w3.org/2000/svg">
<path d="M9.99714 9.84165e-06C12.3108 -0.000651513 14.5532 0.800994 16.342 2.26834C18.1309 3.73569 19.3556 5.77793 19.8074 8.04707C20.2593 10.3162 19.9103 12.6718 18.82 14.7125C17.7297 16.7532 15.9655 18.3526 13.828 19.2383C11.6906 20.124 9.31213 20.2411 7.09802 19.5697C4.8839 18.8982 2.97111 17.4798 1.6856 15.5561C0.400086 13.6324 -0.178597 11.3225 0.0481573 9.01995C0.274912 6.7174 1.29307 4.56472 2.92914 2.92874C3.85604 1.99875 4.95769 1.26123 6.17069 0.758599C7.3837 0.255972 8.68412 -0.00183596 9.99714 9.84165e-06ZM10.495 12.3365L8.13577 11.2512C7.88626 11.5415 7.55581 11.7507 7.18671 11.8521C6.81762 11.9534 6.42667 11.9424 6.0639 11.8203C5.70113 11.6982 5.38305 11.4706 5.15036 11.1667C4.91767 10.8628 4.78095 10.4964 4.75771 10.1143C4.73447 9.73224 4.82577 9.35194 5.01991 9.02207C5.21405 8.69219 5.5022 8.42775 5.8475 8.26259C6.19279 8.09743 6.57952 8.03905 6.95818 8.09494C7.33684 8.15083 7.69021 8.31844 7.97306 8.57631L10.4788 7.53011C10.4638 7.43046 10.4562 7.32986 10.456 7.2291C10.456 6.72143 10.6569 6.23439 11.0148 5.87435C11.3727 5.51431 11.8585 5.31053 12.3662 5.30752C12.6756 5.30644 12.9806 5.38003 13.2555 5.52203C13.5304 5.66403 13.767 5.87026 13.9452 6.12321C14.1233 6.37616 14.2379 6.66836 14.279 6.97501C14.3201 7.28167 14.2867 7.59372 14.1815 7.88468C14.0763 8.17565 13.9024 8.43693 13.6747 8.64636C13.4469 8.85579 13.172 9.00718 12.8733 9.08768C12.5745 9.16818 12.2607 9.17541 11.9586 9.10877C11.6565 9.04212 11.3749 8.90356 11.1377 8.70485L8.58484 9.76245C8.59352 9.83621 8.5984 9.90943 8.59949 9.98211L11.2532 11.2105C11.604 10.9641 12.0273 10.8427 12.4554 10.8656C12.8834 10.8885 13.2913 11.0544 13.6138 11.3368C13.9363 11.6192 14.1546 12.0018 14.2337 12.423C14.3128 12.8443 14.2482 13.28 14.0502 13.6601C13.8522 14.0403 13.5323 14.343 13.1417 14.5197C12.7511 14.6963 12.3126 14.7367 11.8963 14.6344C11.4801 14.532 11.1102 14.2929 10.8461 13.9553C10.582 13.6177 10.4389 13.2012 10.4397 12.7725C10.4402 12.6258 10.4571 12.4795 10.4901 12.3365H10.495ZM15.9278 4.06769C14.5554 2.69636 12.75 1.84331 10.8191 1.6539C8.88827 1.46448 6.95148 1.95042 5.33875 3.02891C3.72601 4.1074 2.53712 5.71172 1.97464 7.56851C1.41216 9.4253 1.51089 11.4197 2.25402 13.2118C2.99714 15.004 4.33868 16.483 6.05005 17.397C7.76142 18.3109 9.73674 18.6032 11.6394 18.224C13.5421 17.8448 15.2545 16.8176 16.4847 15.3174C17.715 13.8172 18.387 11.9369 18.3863 9.99675C18.3873 8.89524 18.1707 7.80438 17.7488 6.78687C17.3269 5.76937 16.708 4.84527 15.9278 4.06769Z" fill="#0F76BB"/>
</svg>
