<svg width="25" height="25" viewBox="0 0 25 25" fill="none" xmlns="http://www.w3.org/2000/svg">
<path d="M12.5001 19.0105C16.1459 19.0105 20.0522 17.1875 20.0522 12.5C20.0522 7.81254 16.1459 5.98962 12.5001 5.98962C8.85425 5.98962 4.948 7.81254 4.948 12.5C4.948 13.5728 5.15257 14.4954 5.51178 15.2806C5.73568 15.77 5.86128 16.3097 5.7621 16.8387L5.48898 18.2953C5.35398 19.0154 5.98474 19.6461 6.70478 19.5111L10.0458 18.8847C10.3084 18.8355 10.5776 18.8398 10.8415 18.8816C11.3907 18.9687 11.9484 19.0105 12.5001 19.0105Z" stroke="#0F76BB" stroke-linecap="round" stroke-linejoin="round"/>
<path d="M9.89591 12.5C9.89591 12.7876 9.66273 13.0208 9.37508 13.0208C9.08743 13.0208 8.85425 12.7876 8.85425 12.5C8.85425 12.2123 9.08743 11.9791 9.37508 11.9791C9.66273 11.9791 9.89591 12.2123 9.89591 12.5Z" stroke="#0F76BB" stroke-linecap="round" stroke-linejoin="round"/>
<path d="M13.0209 12.5C13.0209 12.7876 12.7877 13.0208 12.5001 13.0208C12.2124 13.0208 11.9792 12.7876 11.9792 12.5C11.9792 12.2123 12.2124 11.9791 12.5001 11.9791C12.7877 11.9791 13.0209 12.2123 13.0209 12.5Z" stroke="#0F76BB" stroke-linecap="round" stroke-linejoin="round"/>
<path d="M16.1459 12.5C16.1459 12.7876 15.9127 13.0208 15.6251 13.0208C15.3374 13.0208 15.1042 12.7876 15.1042 12.5C15.1042 12.2123 15.3374 11.9791 15.6251 11.9791C15.9127 11.9791 16.1459 12.2123 16.1459 12.5Z" stroke="#0F76BB" stroke-linecap="round" stroke-linejoin="round"/>
</svg>
